<?xml version="1.0" standalone="no"?>
<!DOCTYPE svg PUBLIC "-//W3C//DTD SVG 20010904//EN"
 "http://www.w3.org/TR/2001/REC-SVG-20010904/DTD/svg10.dtd">
<svg version="1.0" xmlns="http://www.w3.org/2000/svg"
 width="500.000000pt" height="500.000000pt" viewBox="0 0 500.000000 500.000000"
 preserveAspectRatio="xMidYMid meet">

<g transform="translate(0.000000,500.000000) scale(0.100000,-0.100000)"
fill="#000000" stroke="none">
<path d="M2269 4141 c-129 -24 -237 -60 -350 -116 -389 -191 -641 -504 -747
-924 -24 -98 -26 -122 -26 -311 0 -177 3 -217 22 -291 51 -204 144 -383 296
-567 238 -290 634 -471 1029 -472 674 -1 1236 452 1364 1100 24 124 22 345 -5
475 -46 215 -134 423 -244 570 -113 153 -320 330 -477 410 -187 94 -354 134
-591 140 -135 4 -184 1 -271 -14z m420 -91 c165 -19 359 -94 521 -203 97 -65
283 -251 348 -349 160 -239 239 -539 213 -805 -23 -225 -74 -377 -184 -543
-128 -193 -292 -346 -470 -440 l-79 -42 7 32 c6 28 3 36 -20 54 l-27 21 43 49
c24 27 93 86 155 132 202 151 268 223 342 371 112 222 138 320 149 564 6 145
6 146 -18 162 -55 39 -126 10 -165 -68 -13 -28 -37 -115 -53 -193 -16 -79 -31
-146 -35 -149 -3 -4 -17 4 -31 17 -59 55 -137 18 -273 -129 -86 -93 -100 -104
-200 -153 -175 -86 -244 -170 -292 -356 -9 -36 -14 -42 -31 -37 -11 4 -27 1
-35 -6 -10 -8 -34 -10 -76 -5 -34 3 -63 8 -65 10 -3 2 -11 30 -19 62 -39 147
-131 254 -289 334 -68 34 -104 60 -150 109 -116 125 -154 160 -194 181 -54 27
-93 26 -129 -5 -34 -28 -30 -33 -50 55 -6 25 -16 77 -23 115 -17 103 -45 169
-85 204 -43 38 -96 42 -131 9 -28 -26 -30 -85 -8 -258 24 -189 37 -238 105
-385 86 -187 168 -285 361 -432 89 -69 122 -97 169 -147 l35 -37 -29 -22 c-23
-19 -28 -29 -24 -55 l4 -31 -31 13 c-65 27 -213 134 -294 211 -202 194 -333
429 -377 679 -17 96 -19 342 -3 418 63 312 200 551 434 754 186 162 427 271
660 298 67 7 265 5 344 -4z m-1241 -1103 c13 -25 35 -102 48 -169 30 -149 67
-234 154 -343 35 -44 66 -82 70 -85 4 -3 31 -36 60 -75 64 -84 111 -128 157
-150 71 -34 55 4 -67 164 -185 241 -210 282 -189 307 25 30 38 20 222 -172 53
-56 86 -81 155 -115 140 -69 232 -178 270 -322 l11 -38 -87 -44 c-48 -24 -110
-58 -139 -74 l-51 -30 -6 23 c-12 47 -89 129 -203 213 -200 149 -232 184 -314
345 -79 157 -105 224 -119 312 -14 92 -30 288 -24 298 11 17 29 2 52 -45z
m2172 0 c0 -82 -29 -313 -45 -360 -29 -87 -102 -233 -153 -309 -45 -66 -122
-143 -203 -204 -173 -127 -254 -202 -265 -241 -3 -13 -7 -23 -8 -23 -2 0 -39
22 -84 49 -45 27 -102 57 -128 67 l-46 19 6 48 c14 128 104 239 254 314 87 43
109 60 212 164 130 131 154 149 177 126 25 -25 8 -60 -82 -169 -170 -207 -240
-303 -221 -306 44 -9 125 60 257 218 160 193 197 263 224 421 20 118 42 188
68 216 26 30 37 21 37 -30z m-933 -1079 c75 -36 101 -53 87 -56 -37 -5 -56
-35 -44 -66 12 -31 13 -86 3 -86 -13 0 -193 184 -193 197 0 21 19 63 29 63 6
0 59 -23 118 -52z m-239 -9 c3 -33 -3 -42 -84 -123 -96 -96 -115 -100 -95 -21
14 55 4 75 -37 75 -26 0 -26 0 -7 19 25 25 173 90 200 88 15 -2 21 -10 23 -38z
m-265 -109 c4 -16 22 -47 41 -68 l35 -39 -27 -26 c-32 -31 -52 -33 -113 -12
-49 17 -59 29 -59 66 0 25 28 58 80 92 33 23 37 22 43 -13z m720 -6 c31 -19
57 -41 57 -47 -2 -36 -37 -82 -74 -96 -36 -14 -41 -13 -82 9 -24 12 -44 26
-44 29 0 3 16 28 35 55 19 27 35 58 35 68 0 25 7 23 73 -18z"/>
<path d="M2172 3700 c3 -163 1 -240 -7 -240 -5 -1 -131 0 -279 0 l-269 1 6
-107 c4 -59 7 -207 7 -329 l0 -221 269 0 268 1 7 -74 c3 -41 6 -133 6 -205 l1
-131 47 -30 47 -30 226 -3 227 -4 43 28 c24 16 47 33 51 39 4 5 8 100 8 210
l0 200 278 -3 279 -4 -2 279 c-2 153 -3 302 -4 332 l-1 54 -37 -7 c-21 -3
-145 -3 -275 1 l-238 6 0 239 0 238 -331 0 -331 0 4 -240z m383 140 l180 0 3
-198 c3 -136 7 -198 15 -201 7 -2 28 -20 47 -40 l34 -36 228 -3 228 -4 0 -229
0 -229 -275 0 -275 0 -2 -237 -3 -238 -232 0 -233 0 0 110 c0 61 -3 167 -7
238 l-6 127 -269 0 -268 0 0 233 0 232 220 -3 221 -3 41 36 c23 19 45 35 50
35 4 0 8 33 8 73 0 41 3 136 7 212 l6 137 51 -6 c28 -3 132 -6 231 -6z"/>
<path d="M2483 3653 c-7 -2 -13 -15 -13 -29 0 -32 47 -46 66 -19 25 34 -10 66
-53 48z"/>
<path d="M2290 3383 c-62 -33 -106 -92 -116 -159 -12 -84 48 -207 160 -322 58
-61 159 -142 176 -142 25 0 176 131 230 200 96 122 120 183 106 273 -7 41 -50
107 -90 137 -58 43 -138 51 -203 19 l-43 -21 -45 21 c-61 28 -110 27 -175 -6z
m158 -85 c7 -6 11 -18 8 -27 -2 -9 -12 -46 -22 -83 l-17 -68 -68 0 c-57 0 -70
3 -79 19 -31 59 12 158 75 174 26 7 87 -2 103 -15z m243 7 c58 -30 84 -105 59
-171 -10 -26 -12 -27 -69 -21 -50 6 -63 3 -86 -14 -14 -12 -28 -20 -30 -18 -2
2 -8 36 -14 74 -6 39 -13 81 -17 95 -5 21 0 29 33 47 45 27 83 29 124 8z
m-177 -284 c17 -47 33 -71 47 -71 5 0 20 18 34 40 22 34 30 40 60 40 l35 0
-16 -26 c-10 -14 -50 -52 -90 -85 l-73 -60 -33 28 c-74 64 -148 137 -143 141
3 3 29 5 58 3 51 -2 53 -1 64 31 6 18 15 49 19 68 l8 35 7 -50 c4 -27 14 -70
23 -94z"/>
<path d="M1792 3144 c-22 -39 11 -69 56 -53 24 9 29 38 10 57 -17 17 -55 15
-66 -4z"/>
<path d="M2012 3148 c-27 -27 -6 -68 34 -68 28 0 46 23 42 52 -2 17 -10 24
-33 26 -17 2 -36 -3 -43 -10z"/>
<path d="M2990 3141 c-15 -29 4 -63 33 -59 18 2 22 10 22 38 0 28 -4 36 -22
38 -14 2 -26 -4 -33 -17z"/>
<path d="M3134 3146 c-15 -39 21 -80 54 -60 21 14 28 54 10 65 -21 14 -58 10
-64 -5z"/>
<path d="M2474 2666 c-11 -29 1 -51 28 -54 22 -3 29 2 34 22 3 14 3 30 -1 35
-9 16 -55 13 -61 -3z"/>
<path d="M2043 3901 c-34 -15 -65 -30 -69 -34 -4 -4 27 -7 69 -7 l77 0 0 35
c0 19 -3 35 -7 34 -5 0 -36 -13 -70 -28z"/>
<path d="M2880 3896 l0 -36 88 1 87 1 -60 28 c-33 16 -72 32 -87 36 -27 6 -28
4 -28 -30z"/>
<path d="M2962 3843 l-83 -4 3 -27 3 -27 143 -2 c140 -2 143 -1 127 17 -20 22
-78 51 -97 48 -7 -1 -50 -4 -96 -5z"/>
<path d="M1849 3798 c-73 -48 -159 -118 -159 -130 0 -4 97 -8 216 -8 l215 0
-3 23 c-3 22 -5 22 -176 23 -95 1 -175 4 -179 8 -3 3 75 6 175 6 l182 0 0 25
0 25 -141 0 c-77 0 -138 4 -135 8 3 5 54 6 115 4 135 -6 161 0 161 33 0 25 0
25 -103 25 l-103 0 -65 -42z"/>
<path d="M2882 3745 l-2 -25 188 0 187 1 -28 24 c-27 24 -32 25 -185 25 l-158
0 -2 -25z"/>
<path d="M3075 3709 c-104 -3 -191 -6 -192 -7 0 -1 1 -11 4 -22 5 -19 14 -20
219 -20 118 0 214 4 214 8 0 5 -12 17 -27 28 -26 18 -41 19 -218 13z"/>
<path d="M1643 3628 l-27 -28 252 0 c245 0 252 1 252 20 0 27 -16 29 -248 32
l-203 3 -26 -27z"/>
<path d="M2887 3643 c-4 -3 -7 -15 -7 -25 0 -17 15 -18 253 -20 214 -1 234 -3
132 -8 -66 -4 -180 -8 -252 -9 -126 -1 -133 -2 -133 -21 0 -20 7 -20 280 -20
154 0 280 2 280 5 0 3 -22 27 -49 55 l-49 50 -224 0 c-124 0 -228 -3 -231 -7z"/>
<path d="M1564 3540 c-21 -29 -45 -61 -53 -72 -12 -17 -11 -18 23 -18 28 0 36
4 36 18 0 10 7 27 15 39 12 16 12 23 2 27 -6 3 110 5 258 3 l270 -2 3 23 c3
22 2 22 -115 22 -65 0 -181 3 -259 7 l-140 6 -40 -53z"/>
<path d="M3428 3523 c-13 -3 -15 -9 -9 -21 5 -9 13 -26 17 -37 7 -16 15 -19
41 -15 l32 5 -32 36 c-20 22 -39 35 -49 32z"/>
<path d="M1481 3421 c-16 -28 -14 -31 17 -31 15 0 34 -5 42 -11 11 -7 2 -9
-35 -7 l-50 2 -28 -52 -28 -52 85 0 85 0 -2 83 -2 82 -37 3 c-28 2 -39 -1 -47
-17z"/>
<path d="M3440 3406 c0 -22 3 -23 48 -18 56 6 58 7 42 27 -7 9 -29 15 -51 15
-34 0 -39 -3 -39 -24z"/>
<path d="M3440 3350 c0 -18 6 -20 66 -20 57 0 65 2 62 18 -3 14 -16 18 -66 20
-57 3 -62 1 -62 -18z"/>
<path d="M3468 3313 c-20 -3 -28 -10 -28 -24 0 -17 8 -19 85 -19 l85 0 -12 25
c-10 22 -17 25 -57 24 -25 -1 -58 -4 -73 -6z"/>
<path d="M1393 3249 c-31 -31 -15 -39 82 -39 88 0 95 1 95 20 0 18 -7 20 -62
20 -35 0 -72 3 -83 6 -11 3 -26 -1 -32 -7z"/>
<path d="M3503 3252 c-53 -2 -63 -6 -63 -21 0 -22 55 -32 136 -24 56 6 60 8
44 33 -10 16 -18 17 -117 12z"/>
<path d="M1360 3164 c-6 -14 -10 -26 -10 -27 0 -1 49 -1 110 1 109 3 110 3
110 28 0 24 -1 24 -100 24 -99 0 -101 0 -110 -26z"/>
<path d="M3440 3164 l0 -26 105 4 c58 1 105 6 105 10 0 33 -13 38 -111 38
l-99 0 0 -26z"/>
<path d="M1505 3100 c44 -35 59 -34 63 3 3 26 2 27 -49 27 l-52 0 38 -30z"/>
<path d="M3453 3123 c-8 -3 -13 -25 -13 -61 0 -56 0 -56 16 -32 10 14 33 42
53 63 l35 37 -39 -1 c-22 0 -46 -3 -52 -6z"/>
<path d="M1550 3051 c0 -6 5 -13 10 -16 6 -3 10 1 10 9 0 9 -4 16 -10 16 -5 0
-10 -4 -10 -9z"/>
<path d="M1625 2740 c-3 -5 -1 -10 4 -10 6 0 11 5 11 10 0 6 -2 10 -4 10 -3 0
-8 -4 -11 -10z"/>
<path d="M1840 2741 c-53 -4 -69 -8 -55 -14 21 -9 326 -10 334 -1 22 22 -98
28 -279 15z"/>
<path d="M2923 2742 c-24 -2 -43 -7 -43 -13 0 -5 69 -9 168 -9 160 0 212 5
212 19 0 6 -263 9 -337 3z"/>
<path d="M1842 2690 c17 -28 43 -33 167 -34 100 -1 106 0 109 20 3 19 -3 22
-50 27 -29 4 -95 7 -146 7 -90 0 -92 0 -80 -20z"/>
<path d="M3028 2703 l-148 -4 0 -24 0 -25 128 0 128 0 29 30 c16 17 25 29 19
28 -5 -1 -75 -4 -156 -5z"/>
<path d="M1920 2615 c22 -23 31 -25 112 -25 87 0 88 0 88 25 l0 25 -112 0
-111 0 23 -25z"/>
<path d="M2948 2633 c-60 -3 -68 -6 -68 -23 0 -19 7 -20 103 -20 88 0 106 3
120 18 31 34 32 34 -155 25z"/>
<path d="M1972 2558 c13 -20 25 -23 82 -26 65 -3 67 -2 64 20 -3 21 -8 23 -82
26 l-79 3 15 -23z"/>
<path d="M2918 2572 c-29 -2 -38 -8 -38 -22 0 -16 10 -19 68 -22 80 -4 87 -3
105 25 14 22 13 22 -42 22 -31 1 -73 -1 -93 -3z"/>
<path d="M2040 2490 c8 -14 21 -20 45 -20 28 0 35 4 35 20 0 17 -7 20 -45 20
-43 0 -45 -1 -35 -20z"/>
<path d="M2880 2470 c0 -42 5 -46 30 -30 12 8 12 10 -5 11 -11 1 -1 5 21 10
23 6 50 19 59 29 18 20 17 20 -43 20 l-62 0 0 -40z"/>
<path d="M3656 2448 c-111 -261 -196 -367 -453 -561 -111 -84 -121 -94 -100
-103 15 -5 119 63 211 140 61 51 163 169 220 256 64 97 163 310 144 310 -2 0
-12 -19 -22 -42z"/>
<path d="M1345 2455 c21 -61 29 -81 36 -89 18 -20 7 20 -17 64 -14 25 -22 36
-19 25z"/>
<path d="M1390 2347 c0 -34 122 -228 184 -293 25 -26 46 -50 46 -54 0 -8 176
-161 204 -177 24 -14 66 -17 66 -5 0 12 -34 42 -47 42 -6 0 -13 4 -15 8 -1 5
-43 39 -93 77 -127 96 -216 193 -286 309 -32 55 -59 97 -59 93z"/>
<path d="M2377 2238 c20 -19 33 -21 133 -22 106 -1 113 0 127 22 l15 22 -148
0 -148 0 21 -22z"/>
<path d="M2410 2195 c0 -2 5 -16 12 -30 11 -24 15 -25 88 -25 73 0 77 1 88 25
7 14 12 28 12 30 0 3 -45 5 -100 5 -55 0 -100 -2 -100 -5z"/>
<path d="M2444 2114 c3 -9 6 -20 6 -25 0 -5 27 -9 60 -9 33 0 60 4 60 9 0 5 3
16 6 25 5 14 -4 16 -66 16 -62 0 -71 -2 -66 -16z"/>
<path d="M2467 2040 c9 -33 83 -22 83 12 0 4 -20 8 -44 8 -39 0 -44 -2 -39
-20z"/>
<path d="M1876 1786 c21 -15 30 -14 19 3 -3 6 -14 11 -23 11 -13 0 -13 -2 4
-14z"/>
</g>
</svg>
